<?xml version="1.0" encoding="UTF-8"?>
<!-- Generator: Adobe Illustrator 24.2.3, SVG Export Plug-In . SVG Version: 6.00 Build 0)  -->
<svg version="1.1" id="Capa_1" xmlns="http://www.w3.org/2000/svg" xmlns:xlink="http://www.w3.org/1999/xlink" x="0px" y="0px" viewBox="0 0 50 50" style="enable-background:new 0 0 50 50;" xml:space="preserve">
<style type="text/css">
	.st0{fill:#FFFFFF;}
	.st1{fill:none;stroke:#FFFFFF;stroke-width:1.2663;stroke-miterlimit:10;}
</style>
<g>
	<path class="st0" d="M21.3,31.6c0.1,0.2,0.2,0.3,0.4,0.3c4.6,0,9.3,0,14,0l0,0c0.2,0,0.4-0.2,0.4-0.4c0-0.2-0.2-0.4-0.4-0.4   c-4.6,0-9.2,0-13.7,0c-0.5-1.6-1-3.2-1.5-4.9c-0.3-0.9-0.5-1.8-0.8-2.7c-0.2-0.8-0.5-1.6-0.8-2.5c-0.7-2-1.9-6-2-6.1   c0-0.2-0.2-0.3-0.4-0.3h-0.7c0-0.3-0.4-0.6-0.8-0.6h-4.1c-0.5,0-0.9,0.4-0.9,0.8v0.5c0,0.5,0.4,0.8,0.9,0.8H15   c0.4,0,0.8-0.3,0.9-0.7h0.5c0.3,0.9,1.3,4.1,1.8,5.9l0,0c0.3,0.9,0.5,1.7,0.8,2.5l0,0c0.3,0.9,0.6,1.8,0.8,2.7   C20.2,28.2,20.7,29.9,21.3,31.6z"/>
	<path class="st1" d="M39.1,18.2H19.8c-0.5,0-0.9,0.4-0.9,0.8v0.5c0,0.5,0.4,0.8,0.9,0.8h0.3l2.9,9.9c0,0.2,0.2,0.3,0.4,0.3h12.2   c0.2,0,0.3-0.1,0.4-0.3l2.9-9.9h0.3c0.5,0,0.9-0.4,0.9-0.8V19C40,18.6,39.6,18.2,39.1,18.2z"/>
	<path class="st0" d="M21.6,32c-1.1,0-2,0.9-2,2s0.9,2,2,2s2-0.9,2-2S22.7,32,21.6,32z"/>
	<path class="st0" d="M35.9,32c-1.1,0-2,0.9-2,2s0.9,2,2,2s2-0.9,2-2S37,32,35.9,32z"/>
</g>
</svg>